<svg width="24" height="24" viewBox="0 0 24 24" fill="none" xmlns="http://www.w3.org/2000/svg">
<g clip-path="url(#clip0_20_61)">
<path d="M18.9002 16.7767C20.4968 14.6431 21.2258 11.9839 20.9406 9.33446C20.6553 6.68498 19.377 4.24191 17.3629 2.49704C15.3488 0.752171 12.7485 -0.16495 10.0854 -0.0697069C7.42234 0.0255358 4.89419 1.12607 3.0099 3.01036C1.12561 4.89465 0.0250781 7.4228 -0.0701647 10.0859C-0.165407 12.749 0.751713 15.3493 2.49658 17.3634C4.24145 19.3774 6.68452 20.6558 9.334 20.941C11.9835 21.2263 14.6427 20.4972 16.7762 18.9007L21.8762 24.0007L24.0002 21.8807L18.9002 16.7767ZM10.5002 18.0007C9.01688 18.0007 7.56683 17.5608 6.33346 16.7367C5.10009 15.9126 4.1388 14.7413 3.57114 13.3708C3.00349 12.0004 2.85496 10.4924 3.14435 9.03752C3.43374 7.58266 4.14805 6.24629 5.19694 5.1974C6.24583 4.1485 7.5822 3.4342 9.03706 3.14481C10.4919 2.85542 11.9999 3.00394 13.3704 3.5716C14.7408 4.13926 15.9122 5.10055 16.7363 6.33392C17.5604 7.56729 18.0002 9.01734 18.0002 10.5007C17.9984 12.4893 17.2076 14.3958 15.8015 15.802C14.3954 17.2081 12.4888 17.9988 10.5002 18.0007Z" fill="white"/>
</g>
<defs>
<clipPath id="clip0_20_61">
<rect width="24" height="24" fill="white"/>
</clipPath>
</defs>
</svg>
